<mxfile host="app.diagrams.net" modified="2023-04-15T16:14:38.146Z" agent="Mozilla/5.0 (Macintosh; Intel Mac OS X 10_15_7) AppleWebKit/605.1.15 (KHTML, like Gecko) Version/16.3 Safari/605.1.15" version="21.1.8" etag="sA325H0Mt-epSHenu_iu" type="github">
  <diagram name="ページ1" id="3vfZcQ0hZBjZ4wAh1Pqn">
    <mxGraphModel>
      <root>
        <mxCell id="0" />
        <mxCell id="1" parent="0" />
      </root>
    </mxGraphModel>
  </diagram>
</mxfile>
